<svg xmlns="http://www.w3.org/2000/svg" width="369.88116747741486" height="89.43710910354412" viewBox="0 0 369.88116747741486 89.43710910354412" class="css-1j8o68f">

<g id="SvgjsG1090" transform="matrix(1.3551077136900624,0,0,1.3551077136900624,-12.195969423210562,-22.93384782633407)" fill="#FFFFFF">
    <g>
        <g>
            <g>
                <path d="M74,82.924h-8c-0.553,0-1-0.447-1-1v-7h-7c-0.553,0-1-0.447-1-1v-15H43v15c0,0.553-0.447,1-1,1h-7v7c0,0.553-0.447,1-1,1     h-8c-0.553,0-1-0.447-1-1v-16c0-0.553,0.447-1,1-1h7v-6h-7c-0.553,0-1-0.447-1-1v-7h-6v7c0,0.553-0.447,1-1,1h-8     c-0.553,0-1-0.447-1-1v-16c0-0.553,0.447-1,1-1h15v-7c0-0.553,0.447-1,1-1h7v-6h-7c-0.553,0-1-0.447-1-1v-8c0-0.553,0.447-1,1-1     h16c0.553,0,1,0.447,1,1v15h14v-15c0-0.553,0.447-1,1-1h16c0.553,0,1,0.447,1,1v8c0,0.553-0.447,1-1,1h-7v6h7     c0.553,0,1,0.447,1,1v7h15c0.553,0,1,0.447,1,1v16c0,0.553-0.447,1-1,1h-8c-0.553,0-1-0.447-1-1v-7h-6v7c0,0.553-0.447,1-1,1h-7     v6h7c0.553,0,1,0.447,1,1v16C75,82.477,74.553,82.924,74,82.924z M67,80.924h6v-14h-7c-0.553,0-1-0.447-1-1v-8     c0-0.553,0.447-1,1-1h7v-7c0-0.553,0.447-1,1-1h8c0.553,0,1,0.447,1,1v7h6v-14H74c-0.553,0-1-0.447-1-1v-7h-7     c-0.553,0-1-0.447-1-1v-8c0-0.553,0.447-1,1-1h7v-6H59v15c0,0.553-0.447,1-1,1H42c-0.553,0-1-0.447-1-1v-15H27v6h7     c0.553,0,1,0.447,1,1v8c0,0.553-0.447,1-1,1h-7v7c0,0.553-0.447,1-1,1H11v14h6v-7c0-0.553,0.447-1,1-1h8c0.553,0,1,0.447,1,1v7h7     c0.553,0,1,0.447,1,1v8c0,0.553-0.447,1-1,1h-7v14h6v-7c0-0.553,0.447-1,1-1h7v-15c0-0.553,0.447-1,1-1h16c0.553,0,1,0.447,1,1     v15h7c0.553,0,1,0.447,1,1V80.924z M66,50.924h-8c-0.553,0-1-0.447-1-1v-8c0-0.553,0.447-1,1-1h8c0.553,0,1,0.447,1,1v8     C67,50.477,66.553,50.924,66,50.924z M59,48.924h6v-6h-6V48.924z M42,50.924h-8c-0.553,0-1-0.447-1-1v-8c0-0.553,0.447-1,1-1h8     c0.553,0,1,0.447,1,1v8C43,50.477,42.553,50.924,42,50.924z M35,48.924h6v-6h-6V48.924z">

                </path>
            </g>
        </g>
    </g>
</g>
    <g id="SvgjsG1091" transform="matrix(0.37270561987774886,0,0,0.37270561987774886,130.27206862204045,37.53411806401276)" fill="#FFFFFF">
        <path d="M30.703 38.5937 l7.0313 0 l-13.594 -37.266 l-7.1094 0 l7.8906 22.266 z M1.9531 38.5937 l6.875 0 l8.125 -19.844 l-3.3594 -8.9063 z M76.781 38.5937 l-10.078 -14.063 c1.3541 -0.41664 2.552 -0.91141 3.5937 -1.4843 c1.1459 -0.72914 2.0834 -1.5364 2.8125 -2.4218 c0.83336 -0.98961 1.4323 -2.0573 1.797 -3.2032 c0.46875 -1.25 0.70313 -2.6563 0.70313 -4.2188 c0 -1.8229 -0.3125 -3.4635 -0.9375 -4.9219 c-0.625 -1.4063 -1.5365 -2.6302 -2.7344 -3.6719 c-1.1459 -0.98961 -2.6042 -1.7709 -4.3751 -2.3438 c-1.8229 -0.57289 -3.75 -0.85938 -5.7813 -0.85938 l-16.563 0 l0 5.9375 l16.016 0 c2.4479 0 4.3489 0.52086 5.703 1.5625 s2.0313 2.6041 2.0313 4.6875 c0 1.9271 -0.67711 3.4375 -2.0313 4.5313 c-1.3541 1.1459 -3.2291 1.7188 -5.625 1.7188 l-16.094 0 l0 18.75 l6.4844 0 l0 -12.969 l8.2031 0 l9.1406 12.969 l7.7344 0 l0 0 z M89.2656 12.5 c0.9375 -2.2916 2.2916 -4.2447 4.0624 -5.8593 c1.6146 -1.6146 3.698 -2.9167 6.2501 -3.9063 s5.2344 -1.4844 8.0469 -1.4844 l8.6719 0 l0 5.9375 l-8.5938 0 c-2.0313 0 -3.8281 0.33852 -5.3906 1.0156 c-1.6666 0.67711 -3.0208 1.5625 -4.0624 2.6563 c-1.0938 1.0416 -1.9791 2.3958 -2.6563 4.0624 c-0.625 1.5104 -0.9375 3.2031 -0.9375 5.0781 s0.3125 3.5677 0.9375 5.0781 c0.625 1.5625 1.5104 2.9166 2.6563 4.0625 c1.0416 1.0416 2.3958 1.901 4.0624 2.5781 c1.6666 0.625 3.4635 0.9375 5.3906 0.9375 l8.5938 0 l0 5.9375 l-8.6719 0 c-2.9166 0 -5.5729 -0.46875 -7.9688 -1.4063 c-2.5 -1.0416 -4.6094 -2.3698 -6.3281 -3.9844 c-1.7709 -1.6666 -3.125 -3.6458 -4.0625 -5.9374 c-0.98961 -2.3959 -1.4844 -4.8438 -1.4844 -7.3438 c0 -2.6563 0.49477 -5.1302 1.4844 -7.4219 z M153.703 38.5937 l7.0313 0 l-13.594 -37.266 l-7.1094 0 l7.8906 22.266 z M124.9531 38.5937 l6.875 0 l8.125 -19.844 l-3.3594 -8.9063 z M196.813 27.344 c-0.98961 2.3959 -2.3438 4.375 -4.0625 5.9375 c-1.7709 1.6666 -3.8542 2.9688 -6.2501 3.9063 s-5.0781 1.4063 -8.0469 1.4063 l-8.6719 0 l0 -5.9375 l8.5938 0 c1.9791 0 3.776 -0.3125 5.3906 -0.9375 c1.5625 -0.625 2.9166 -1.5104 4.0625 -2.6563 s2.0313 -2.5 2.6563 -4.0625 s0.9375 -3.2813 0.9375 -5.1563 c0 -1.8229 -0.3125 -3.5156 -0.9375 -5.0781 c-0.625 -1.6146 -1.5104 -2.9427 -2.6563 -3.9844 c-1.0416 -1.0938 -2.3958 -1.9791 -4.0624 -2.6563 c-1.6666 -0.625 -3.4635 -0.9375 -5.3906 -0.9375 l-8.5938 0 l0 -5.9375 l8.6719 0 c2.7604 0 5.4166 0.49477 7.9688 1.4844 c2.3959 0.88539 4.5052 2.2135 6.3281 3.9844 c1.7709 1.6146 3.125 3.5938 4.0625 5.9375 c0.98961 2.3959 1.4844 4.8438 1.4844 7.3438 c0 2.7084 -0.49477 5.1563 -1.4844 7.3438 z M211.0938 1.4059999999999988 l27.813 0 l0 5.9375 l-27.813 0 l0 -5.9375 z M211.0938 32.6562 l27.734 0 l0 5.9375 l-27.734 0 l0 -5.9375 z M211.0938 16.875 l25.078 0 l0 5.8594 l-25.078 0 l0 -5.8594 z  M313.32775 25 c-0.36461 -0.98961 -0.88531 -1.8488 -1.5624 -2.578 c-0.46875 -0.52086 -1.224 -1.1198 -2.2656 -1.797 c-1.1459 -0.57289 -2.1615 -1.0156 -3.0469 -1.3281 c0.625 -0.36461 1.3021 -0.78125 2.0313 -1.25 c0.72914 -0.625 1.276 -1.224 1.6406 -1.7969 c0.46875 -0.625 0.85938 -1.3802 1.1719 -2.2656 c0.3125 -0.9375 0.46875 -1.9531 0.46875 -3.0469 c0 -2.9166 -1.0938 -5.2344 -3.2813 -6.9531 s-5.1563 -2.5781 -8.9063 -2.5781 l-14.453 0 l0 5.7813 l13.672 0 c1.9791 0 3.5938 0.41664 4.8438 1.25 c1.0938 0.83336 1.6406 2.0313 1.6406 3.5938 c0 1.7709 -0.625 3.0469 -1.875 3.8281 c-1.3021 0.83336 -2.9948 1.25 -5.0782 1.25 l-13.203 0 l0 5.4688 l14.609 0 c2.5 0 4.401 0.44273 5.7031 1.3281 c1.25 0.9375 1.875 2.1875 1.875 3.75 c0 1.6666 -0.625 2.9427 -1.875 3.828 c-1.3021 0.88539 -3.0469 1.3281 -5.2344 1.3281 l-15.078 0 l0 5.7813 l15 0 c2.0313 0 3.9063 -0.23438 5.625 -0.70313 c1.7709 -0.52086 3.2031 -1.1719 4.2969 -1.9531 s2.0313 -1.849 2.8125 -3.2031 c0.625 -1.25 0.9375 -2.7084 0.9375 -4.375 c0 -1.3021 -0.15625 -2.4219 -0.46875 -3.3594 z M350.42175 38.5937 l7.0313 0 l-13.594 -37.266 l-7.1094 0 l7.8906 22.266 z M321.67185 38.5937 l6.875 0 l8.125 -19.844 l-3.3594 -8.9063 z M383.99975 7.5 l11.797 0 l0 -6.0938 l-30.156 0 l0 6.0938 l18.359 0 z M377.43775 13.594000000000001 l6.5625 0 l0 25 l-6.5625 0 l0 -25 z M424.99975 7.5 l11.797 0 l0 -6.0938 l-30.156 0 l0 6.0938 l18.359 0 z M418.43775 13.594000000000001 l6.5625 0 l0 25 l-6.5625 0 l0 -25 z M473.42175 38.5937 l7.0313 0 l-13.594 -37.266 l-7.1094 0 l7.8906 22.266 z M444.67185 38.5937 l6.875 0 l8.125 -19.844 l-3.3594 -8.9063 z M490.75005 1.4059999999999988 l6.4063 0 l0 31.25 l19.531 0 l0 5.9375 l-25.938 0 l0 -37.188 z M547.99975 16.875 l0 -15.547 l-6.5625 0 l0 37.344 l6.5625 0 l0 -21.797 z M583.06275 32.6562 c-0.78125 -0.15625 -1.5105 -0.3907 -2.1876 -0.7032 c-1.4584 -0.67711 -2.7344 -1.6146 -3.8281 -2.8125 c-1.0416 -1.0938 -1.875 -2.4479 -2.5 -4.0625 c-0.57289 -1.6146 -0.85938 -3.2552 -0.85938 -4.9219 l0 -0.15625 l0 -0.23438 c0 -1.7188 0.28648 -3.3854 0.85938 -5 c0.67711 -1.6666 1.5105 -2.9948 2.5001 -3.9844 c1.0416 -1.1979 2.2916 -2.1094 3.75 -2.7344 c0.88539 -0.41664 1.6406 -0.67703 2.2656 -0.78117 l0 -5.8594 c-1.8229 0.26039 -3.4375 0.70313 -4.8438 1.3281 c-2.2916 0.98961 -4.2448 2.3177 -5.8594 3.9844 s-2.8906 3.6458 -3.8281 5.9374 s-1.4063 4.6875 -1.4063 7.1875 l0 0.15625 l0 0.23438 c0 2.5521 0.46875 4.948 1.4063 7.1876 c0.83336 2.2396 2.0834 4.1927 3.75 5.8594 c1.6666 1.7188 3.6198 3.0469 5.8594 3.9844 c1.4063 0.625 3.0469 1.0677 4.9219 1.3281 l0 -5.9375 z M604.31275 20 l0.000076294 -0.23438 c0 -2.5521 -0.46875 -4.948 -1.4063 -7.1876 c-0.9375 -2.2916 -2.2135 -4.2708 -3.8281 -5.9374 c-1.5625 -1.6666 -3.4896 -2.9688 -5.7813 -3.9063 c-1.3021 -0.625 -2.8906 -1.0677 -4.7656 -1.3281 l0 5.9375 l0.9375 0.3125 c0.46875 0.15625 0.83336 0.28648 1.0938 0.39063 c1.4584 0.67711 2.7344 1.6146 3.8281 2.8125 c1.0416 1.0938 1.875 2.4479 2.5 4.0625 c0.57289 1.6146 0.85938 3.2552 0.85938 4.9219 l0 0.15625 l0 0.23438 c0 1.7188 -0.28648 3.3854 -0.85938 5 c-0.67711 1.6666 -1.5105 2.9948 -2.5001 3.9844 c-1.0416 1.1979 -2.2916 2.1094 -3.75 2.7344 c-0.67711 0.3125 -1.3802 0.54688 -2.1094 0.70313 l0 5.9375 c1.5625 -0.20836 3.125 -0.65109 4.6875 -1.3282 c2.1354 -0.88539 4.0885 -2.2135 5.8594 -3.9844 c1.7188 -1.8229 2.9948 -3.802 3.8281 -5.9374 c0.9375 -2.2916 1.4063 -4.6875 1.4063 -7.1875 l0 -0.15625 z M610.54685 38.5937 l6.4844 0 l0 -19.922 l-6.4844 -9.1406 l0 29.063 z M636.48475 1.4059999999999988 l0 25.703 l-18.359 -25.703 l-7.0313 0 l26.406 37.188 l5.3906 0 l0 -37.188 l-6.4063 0 z">

        </path>
    </g>
</svg>